# Blender v3.6.1 OBJ File: 'CloudversModels.blend'
# www.blender.org
mtllib bush_wall_single_01.mtl
o Plane.004
v -0.497137 1.566008 0.859393
v -0.146179 1.329975 0.859393
v -0.497137 1.566008 0.145216
v -0.146179 1.329975 0.145216
v 0.883398 0.903077 0.814106
v 1.233997 1.139643 0.814106
v 0.883398 0.903077 0.099929
v 1.233997 1.139643 0.099929
v -0.561873 0.462078 0.737690
v -0.432739 0.070379 0.643993
v -0.981293 0.462078 0.159645
v -0.852159 0.070379 0.065948
v -1.631906 0.940415 -0.048172
v -1.417914 0.627454 0.139301
v -1.022598 1.301046 -0.141644
v -0.808606 0.988085 0.045828
v -0.425223 0.960715 -0.851185
v -0.492797 0.597611 -0.645098
v -0.587549 1.326616 -0.259733
v -0.655123 0.963512 -0.053646
v 0.117259 0.629798 -1.031637
v 0.247312 0.284115 -0.825550
v -0.210973 0.858920 -0.440185
v -0.080921 0.513236 -0.234098
v -0.497138 2.291326 0.412530
v -0.146179 2.180377 0.620860
v -0.497137 1.660969 0.076825
v -0.146179 1.550020 0.285155
v 0.897396 1.239143 0.072505
v 1.111388 1.601280 0.116629
v 1.506704 0.897077 -0.075085
v 1.720696 1.259215 -0.030962
v 0.684922 1.905438 -1.031637
v 1.043175 1.995244 -0.825549
v 0.419882 1.605460 -0.440185
v 0.778136 1.695266 -0.234098
v 1.123018 2.332783 0.342369
v 1.253071 2.221833 -0.044489
v 0.794786 1.702425 0.412809
v 0.924839 1.591476 0.025951
v -1.342665 -0.016901 0.563138
v 0.022876 1.983098 -0.566900
v -1.342665 -0.016901 -0.566900
v 1.340125 -0.016901 0.563137
v 1.340125 -0.016900 -0.566900
v 1.340126 1.983099 -0.566900
v 1.340125 1.983099 -0.145514
v 1.340125 1.566602 0.563138
v 1.072612 1.983099 0.563138
v -1.342665 1.796133 0.563138
v -1.342665 2.050973 -0.566900
v -1.294372 2.138633 -0.566900
v -1.239666 1.983099 0.563138
v -0.337935 -0.016901 0.563138
v 0.033997 1.828910 0.563138
v -0.202123 -0.016901 -0.566900
vt 0.000000 0.000000
vt 1.000000 0.000000
vt 1.000000 1.000000
vt 0.000000 1.000000
vt 0.000000 0.000000
vt 1.000000 0.000000
vt 1.000000 1.000000
vt 0.000000 1.000000
vt 0.000000 0.000000
vt 1.000000 0.000000
vt 1.000000 1.000000
vt 0.000000 1.000000
vt 0.000000 0.000000
vt 1.000000 0.000000
vt 1.000000 1.000000
vt 0.000000 1.000000
vt 0.000000 0.000000
vt 1.000000 0.000000
vt 1.000000 1.000000
vt 0.000000 1.000000
vt 0.000000 0.000000
vt 1.000000 0.000000
vt 1.000000 1.000000
vt 0.000000 1.000000
vt 0.000000 0.000000
vt 1.000000 0.000000
vt 1.000000 1.000000
vt 0.000000 1.000000
vt 0.000000 0.000000
vt 1.000000 0.000000
vt 1.000000 1.000000
vt 0.000000 1.000000
vt 0.000000 0.000000
vt 1.000000 0.000000
vt 1.000000 1.000000
vt 0.000000 1.000000
vt 0.000000 0.000000
vt 1.000000 0.000000
vt 1.000000 1.000000
vt 0.000000 1.000000
vt 0.614042 0.250000
vt 0.601629 1.000000
vt 0.865402 0.750000
vt 0.625000 0.254500
vt 0.375000 0.906373
vt 0.625000 0.871714
vt 0.625000 0.990402
vt 0.375000 1.000000
vt 0.625000 0.593224
vt 0.625000 0.774929
vt 0.572938 0.750000
vt 0.375000 0.500000
vt 0.625000 0.500000
vt 0.375000 0.750000
vt 0.746714 0.750000
vt 0.747750 0.500000
vt 0.870500 0.500000
vt 0.649929 0.750000
vt 0.375000 0.250000
vt 0.625000 0.377250
vt 0.375000 0.356283
vt 0.375000 0.000000
vt 0.601629 0.000000
vn 0.5581 0.8298 0.0000
vn -0.5593 0.8289 0.0000
vn 0.7496 0.3772 -0.5439
vn -0.1270 0.4444 0.8868
vn -0.9606 0.0216 -0.2770
vn -0.8332 -0.4786 -0.2770
vn 0.5581 0.3901 -0.7324
vn -0.1270 0.1936 -0.9728
vn 0.3805 -0.8823 -0.2770
vn -0.8332 0.3901 -0.3920
vn -0.7443 0.2183 -0.6312
vn -0.7223 0.1595 0.6729
vn -0.3505 0.6705 0.6539
vn -0.3777 0.7479 -0.5459
vn 0.0000 -0.0000 1.0000
vn 0.0175 0.6388 0.7692
vn -0.7071 -0.0000 0.7071
vn 0.6867 0.7223 0.0824
vn 0.2608 0.6966 0.6683
vn 0.7116 0.1377 0.6890
vn 0.7071 -0.0000 -0.7071
vn 0.5644 0.5999 -0.5671
vn 0.7071 -0.0000 0.7071
vn 0.0209 0.7262 -0.6872
vn -0.7071 -0.0000 -0.7071
vn 0.0000 -0.0000 -1.0000
usemtl None
s off
f 1/1/1 2/2/1 4/3/1 3/4/1
f 5/5/2 6/6/2 8/7/2 7/8/2
f 9/9/3 10/10/3 12/11/3 11/12/3
f 13/13/4 14/14/4 16/15/4 15/16/4
f 17/17/5 18/18/5 20/19/5 19/20/5
f 21/21/6 22/22/6 24/23/6 23/24/6
f 25/25/7 26/26/7 28/27/7 27/28/7
f 29/29/8 30/30/8 32/31/8 31/32/8
f 33/33/9 34/34/9 36/35/9 35/36/9
f 37/37/10 38/38/10 40/39/10 39/40/10
s 1
f 51/41/11 50/42/12 53/43/13 52/44/14
f 54/45/15 55/46/16 53/47/13 50/42/12 41/48/17
f 47/49/18 49/50/19 48/51/20
f 45/52/21 46/53/22 47/49/18 48/51/20 44/54/23
f 55/55/16 42/56/24 52/57/14 53/43/13
f 46/53/22 42/56/24 55/55/16 49/58/19 47/49/18
f 43/59/25 51/41/11 52/44/14 42/60/24 56/61/26
f 41/62/17 50/63/12 51/41/11 43/59/25
f 44/54/23 48/51/20 49/50/19 55/46/16 54/45/15
f 56/61/26 42/60/24 46/53/22 45/52/21
