# Blender v3.6.1 OBJ File: 'CloudversModels.blend'
# www.blender.org
mtllib Mountain.mtl
o Cylinder
v 0.895729 -0.045160 -0.703782
v 0.355417 2.092035 -0.464989
v 1.018372 -0.045160 0.355354
v 0.371622 1.243978 0.556572
v -0.702775 -0.045160 0.892250
v -0.294076 2.386361 0.463830
v -1.075455 -0.045160 0.245491
v -0.735432 -0.045160 -0.531768
v 0.422633 -0.045160 -0.931613
v -0.258944 -0.045160 -0.907496
v 0.609219 -0.045160 0.874826
v 0.234316 2.301397 0.380589
v 0.286154 -0.045160 0.985977
v 0.056072 2.337319 0.440271
v -0.722688 2.384305 0.222434
v -0.912495 1.303338 0.185571
v -0.792326 2.339421 -0.010695
v -0.250057 2.116334 -0.687594
v -0.694185 1.194123 -0.542257
v -0.252797 0.911359 -0.856454
v -0.170807 1.436456 -0.833822
v -0.709238 2.238297 -0.405779
v 0.421714 2.135138 -0.241431
v 0.999748 0.050286 0.343268
v 0.403651 2.234022 0.179169
v -0.483623 1.065522 0.649443
v 0.642157 1.282848 -0.040601
v 0.634941 1.243098 0.231972
v 0.146285 1.157484 0.656526
v 0.545443 1.341097 -0.561703
vt 0.523630 0.592384
vt 0.516017 0.657701
vt 0.574185 0.655366
vt 0.592441 0.583223
vt 0.578819 0.669007
vt 0.601040 0.573808
vt 0.601733 0.577627
vt 0.580555 0.659507
vt 0.598568 0.450043
vt 0.575742 0.573892
vt 0.554094 0.565583
vt 0.567531 0.450043
vt 0.493577 0.556748
vt 0.472523 0.450043
vt 0.249734 1.000000
vt 0.285714 0.823556
vt 0.314061 1.000000
vt 0.580643 0.450043
vt 0.515163 0.450043
vt 0.515753 0.541937
vt 0.626094 0.450043
vt 0.637876 0.450043
vt 0.436719 0.450043
vt 0.469386 0.450043
vt 0.473348 0.569103
vt 0.471902 0.669418
vt 0.452375 0.579595
vt 0.636087 0.459212
vt 0.463920 0.679133
vt 0.562551 0.675480
vt 0.545427 0.678931
vt 0.511788 0.683643
vt 0.470610 0.683445
vt 0.271663 0.479567
vt 0.054288 0.364270
vt 0.027689 0.247734
vt 0.041783 0.164286
vt 0.145868 0.033767
vt 0.295949 0.033767
vt 0.371519 0.055569
vt 0.437640 0.399638
vt 0.440797 0.142442
vt 0.457617 0.312110
vn 0.3594 0.2216 -0.9065
vn 0.9707 0.2399 0.0149
vn 0.3055 0.2826 0.9093
vn -0.0740 0.2419 0.9675
vn -0.9540 0.1588 0.2544
vn -0.0376 0.0519 -0.9979
vn 0.3932 0.2044 -0.8964
vn 0.0000 -1.0000 0.0000
vn -0.5142 0.1133 -0.8502
vn -0.7752 0.1944 0.6011
vn -0.5952 0.0277 -0.8031
vn -0.9341 0.0642 -0.3512
vn 0.7472 0.2826 0.6015
vn 0.9612 0.2444 -0.1281
vn 0.9516 0.2304 -0.2036
vn -0.9631 0.0410 -0.2662
vn 0.9522 0.2976 0.0686
vn 0.3394 0.1958 0.9200
vn -0.6047 0.1440 0.7833
vn 0.7687 0.2060 0.6055
vn 0.0097 0.1583 0.9873
vn 0.1206 0.9675 -0.2223
usemtl Material.008
s off
f 21/1/1 18/2/1 2/3/1 30/4/1
f 25/5/2 28/6/2 27/7/2 23/8/2
f 11/9/3 4/10/3 29/11/3 13/12/3
f 13/12/4 29/11/4 26/13/4 5/14/4
f 17/15/5 16/16/5 15/17/5
f 21/1/6 9/18/6 10/19/6 20/20/6
f 30/4/7 1/21/7 9/18/7 21/1/7
f 9/18/8 1/21/8 3/22/8 11/9/8 13/12/8 5/14/8 7/23/8 8/24/8 10/19/8
f 19/25/9 22/26/9 18/2/9 21/1/9 20/20/9
f 5/14/10 26/13/10 16/27/10 7/23/10
f 8/24/11 19/25/11 20/20/11 10/19/11
f 7/23/12 16/27/12 19/25/12 8/24/12
f 3/22/13 24/28/13 28/6/13 4/10/13 11/9/13
f 1/21/14 30/4/14 27/7/14 24/28/14 3/22/14
f 27/7/15 30/4/15 2/3/15 23/8/15
f 19/25/16 16/27/16 17/29/16 22/26/16
f 27/7/17 28/6/17 24/28/17
f 29/11/18 4/10/18 12/30/18 14/31/18
f 16/27/19 26/13/19 6/32/19 15/33/19
f 4/10/20 28/6/20 25/5/20 12/30/20
f 26/13/21 29/11/21 14/31/21 6/32/21
usemtl Material.004
f 18/34/22 22/35/22 17/36/22 15/37/22 6/38/22 14/39/22
f 18/34/22 14/39/22 12/40/22
f 2/41/22 18/34/22 12/40/22 25/42/22 23/43/22
