# Blender v3.6.1 OBJ File: 'CloudversModels.blend'
# www.blender.org
mtllib PineSeparatedd.mtl
o Cube
v -0.000381 7.434249 -0.001881
v -1.000381 1.024739 -1.001881
v -1.000381 1.024739 0.998119
v 0.999619 1.024739 -1.001881
v 0.999619 1.024739 0.998119
vt 0.514462 0.066731
vt 0.378828 0.937790
vt 0.243193 0.066731
vt 0.512702 0.067340
vt 0.377067 0.938399
vt 0.241432 0.067340
vt 0.868013 0.081509
vt 0.738186 0.915274
vt 0.608359 0.081509
vt 0.868162 0.067239
vt 0.738335 0.901004
vt 0.608507 0.067239
vt 0.375000 0.750000
vt 0.125000 0.750000
vt 0.125000 0.500000
vt 0.375000 0.500000
vn -0.9880 0.1542 0.0000
vn 0.0000 0.1542 -0.9880
vn 0.9880 0.1542 0.0000
vn 0.0000 0.1542 0.9880
vn 0.0000 -1.0000 0.0000
usemtl Material.004
s off
f 3/1/1 1/2/1 2/3/1
f 2/4/2 1/5/2 4/6/2
f 4/7/3 1/8/3 5/9/3
f 5/10/4 1/11/4 3/12/4
f 5/13/5 3/14/5 2/15/5 4/16/5
o Cube.007
v -0.220249 1.827766 0.217987
v -0.220249 1.827766 -0.221750
v 0.219488 1.827766 0.217987
v 0.219488 1.827766 -0.221750
v -0.220249 -0.220896 -0.221750
v -0.220249 -0.220896 0.217987
v 0.219488 -0.220896 -0.221750
v 0.219488 -0.220896 0.217987
vt 0.277484 0.597516
vt 0.277484 0.652484
vt 0.277484 0.652484
vt 0.277484 0.597516
vt 0.222516 0.652484
vt 0.222516 0.597516
vt 0.222516 0.597516
vt 0.222516 0.652484
vn 1.0000 0.0000 0.0000
vn -1.0000 0.0000 0.0000
vn 0.0000 0.0000 1.0000
vn 0.0000 0.0000 -1.0000
usemtl Material.010
s off
f 9/17/6 8/18/6 13/19/6 12/20/6
f 6/21/7 7/22/7 10/23/7 11/24/7
f 8/18/8 6/21/8 11/24/8 13/19/8
f 7/22/9 9/17/9 12/20/9 10/23/9
