# Blender v3.6.1 OBJ File: 'CloudversModels.blend'
# www.blender.org
mtllib pond_ground.mtl
o Cube.008
v -1.000381 -1.999476 0.998119
v -1.000381 0.000524 0.998119
v -1.000381 -1.999476 -1.001881
v -1.000381 0.000524 -1.001881
v 0.999619 -1.999476 0.998119
v 0.999619 0.000524 0.998119
v 0.999619 -1.999476 -1.001881
v 0.999619 0.000524 -1.001881
v -0.734458 0.000524 -0.432520
v -0.458031 0.000524 -0.746813
v 0.021667 0.000524 -0.835099
v 0.543052 0.000524 -0.735453
v 0.752301 0.000524 -0.341640
v 0.795357 0.000524 0.063534
v 0.797658 0.000524 0.545232
v 0.571943 0.000524 0.798148
v 0.072103 0.000524 0.798148
v -0.239596 0.000524 0.493601
v -0.676255 0.000524 0.318240
v -0.806404 0.000524 -0.031133
v -0.510518 0.000524 0.378529
v -0.618158 0.000524 -0.615963
v -0.241191 0.000524 -0.815061
v 0.300986 0.000524 -0.809381
v 0.680547 0.000524 -0.564843
v 0.780403 0.000524 -0.139053
v 0.809656 0.000524 0.304383
v 0.739585 0.000524 0.715517
v 0.322023 0.000524 0.833210
v -0.112234 0.000524 0.650257
v -0.778583 0.000524 0.166563
v -0.803302 0.000524 -0.244974
v -0.337804 0.000524 0.418534
v -0.723334 -0.243817 -0.425994
v -0.451280 -0.243816 -0.735825
v 0.021325 -0.243818 -0.822207
v 0.535376 -0.243814 -0.725091
v 0.740547 -0.243818 -0.336334
v 0.782504 -0.243820 0.062477
v 0.787022 -0.243812 0.537940
v 0.564440 -0.243811 0.787659
v 0.070939 -0.243820 0.785304
v -0.233989 -0.243842 0.481988
v -0.664600 -0.243823 0.312720
v -0.793517 -0.243819 -0.030665
v -0.500180 -0.243832 0.370819
v -0.609012 -0.243816 -0.606871
v -0.237530 -0.243817 -0.802696
v 0.296477 -0.243816 -0.797299
v 0.670608 -0.243815 -0.556625
v 0.767701 -0.243820 -0.136821
v 0.797593 -0.243816 0.299822
v 0.730326 -0.243809 0.706540
v 0.317378 -0.243815 0.821179
v -0.110054 -0.243830 0.637547
v -0.765979 -0.243820 0.163835
v -0.790959 -0.243818 -0.241238
v -0.329732 -0.243843 0.408477
vt 0.991654 0.992834
vt 0.810038 0.762462
vt 0.861293 0.667220
vt 0.869681 0.546768
vt 0.878068 0.426315
vt 0.991654 0.006487
vt 0.007241 0.006487
vt 0.175406 0.338543
vt 0.139062 0.426315
vt 0.102717 0.514087
vt 0.007241 0.992834
vt 0.000000 0.000000
vt 0.000000 0.000000
vt 0.000000 0.000000
vt 0.000000 0.000000
vt 0.000000 0.000000
vt 0.000000 0.000000
vt 0.000000 0.000000
vt 0.000000 0.000000
vt 0.000000 0.000000
vt 0.000000 0.000000
vt 0.000000 0.000000
vt 0.000000 0.000000
vt 0.000000 0.000000
vt 0.000000 0.000000
vt 0.000000 0.000000
vt 0.000000 0.000000
vt 0.000000 0.000000
vt 0.000000 0.000000
vt 0.000000 0.000000
vt 0.000000 0.000000
vt 0.000000 0.000000
vt 0.000000 0.000000
vt 0.000000 0.000000
vt 0.000000 0.000000
vt 0.000000 0.000000
vt 0.182862 0.844631
vt 0.291895 0.867975
vt 0.400929 0.891319
vt 0.579856 0.874511
vt 0.758783 0.857704
vt 0.138130 0.712040
vt 0.160496 0.778336
vt 0.443797 0.202217
vt 0.352470 0.297458
vt 0.308204 0.307729
vt 0.263938 0.318001
vt 0.835200 0.103240
vt 0.685162 0.105107
vt 0.535124 0.106975
vt 0.869681 0.322669
vt 0.861293 0.219024
vt 0.848247 0.161132
vt 0.120424 0.613063
vt 0.849572 0.304785
vt 0.913808 0.396430
vt 0.799944 0.460198
vt 0.731902 0.380649
vt 0.975221 0.516301
vt 0.857004 0.550719
vt 0.000099 0.550782
vt 0.011741 0.389000
vt 0.141414 0.415430
vt 0.139515 0.538950
vt 0.056375 0.261435
vt 0.166709 0.316071
vt 0.695520 0.074461
vt 0.765661 0.161871
vt 0.659024 0.246589
vt 0.622135 0.174660
vt 0.592521 0.018402
vt 0.555969 0.140318
vt 0.121997 0.843741
vt 0.042478 0.717778
vt 0.163331 0.667036
vt 0.210278 0.765877
vt 0.467679 0.000099
vt 0.468148 0.133484
vt 0.334063 0.019199
vt 0.374408 0.144010
vt 0.343853 0.976301
vt 0.219117 0.924814
vt 0.285431 0.821300
vt 0.381779 0.856119
vt 0.222198 0.071951
vt 0.293194 0.181841
vt 0.814231 0.249497
vt 0.693222 0.324972
vt 0.567807 0.999900
vt 0.456588 0.996913
vt 0.470221 0.867666
vt 0.562984 0.869773
vt 0.838238 0.951928
vt 0.704005 0.990436
vt 0.679515 0.863100
vt 0.783012 0.846340
vt 0.976811 0.798802
vt 0.920870 0.889747
vt 0.843535 0.818546
vt 0.867602 0.754647
vt 0.999901 0.656651
vt 0.877856 0.653619
vt 0.122287 0.158542
vt 0.218334 0.241008
vt 0.375000 0.000000
vt 0.625000 0.000000
vt 0.625000 0.250000
vt 0.375000 0.250000
vt 0.625000 0.500000
vt 0.375000 0.500000
vt 0.625000 0.750000
vt 0.375000 0.750000
vt 0.625000 1.000000
vt 0.375000 1.000000
vn 0.0000 1.0000 0.0000
vn 0.0001 1.0000 -0.0000
vn -0.0000 1.0000 -0.0001
vn 0.5002 0.6990 -0.5110
vn 0.4704 0.7461 -0.4711
vn 0.5071 0.6994 -0.5037
vn 0.4603 0.7515 -0.4727
vn 0.2920 0.6750 -0.6776
vn 0.3000 0.6690 -0.6800
vn -0.0055 0.7092 0.7050
vn 0.1344 0.7037 0.6977
vn 0.1343 0.7012 0.7002
vn -0.0054 0.7076 0.7066
vn 0.3036 0.7692 0.5623
vn 0.3451 0.6862 0.6404
vn 0.3717 0.7979 -0.4746
vn 0.1903 0.7355 -0.6503
vn 0.1965 0.7087 -0.6776
vn 0.4571 0.6610 -0.5951
vn 0.6806 0.6845 -0.2614
vn 0.6848 0.6788 -0.2649
vn -0.3394 0.7956 0.5019
vn -0.1363 0.7057 0.6953
vn -0.1359 0.7036 0.6975
vn -0.4173 0.6661 0.6182
vn 0.6685 0.7425 -0.0423
vn 0.7039 0.7089 -0.0449
vn 0.7077 0.6943 0.1310
vn 0.7116 0.6903 0.1308
vn -0.6882 0.7084 0.1564
vn -0.5644 0.7673 0.3043
vn -0.6404 0.6871 0.3433
vn -0.6902 0.7066 0.1560
vn 0.5939 0.7494 0.2928
vn 0.6382 0.7028 0.3143
vn 0.3096 0.6807 -0.6639
vn 0.2692 0.7747 -0.5722
vn -0.6855 0.7266 0.0464
vn -0.6912 0.7190 0.0731
vn -0.6916 0.7186 0.0730
vn -0.6884 0.7238 0.0467
vn -0.7036 0.6978 -0.1344
vn -0.7006 0.7135 0.0045
vn -0.7016 0.7125 0.0055
vn -0.7070 0.6947 -0.1323
vn -0.1907 0.7611 -0.6200
vn -0.4311 0.8189 -0.3789
vn -0.5715 0.6498 -0.5011
vn -0.2101 0.6913 -0.6913
vn 0.0005 0.6980 -0.7161
vn 0.0029 0.6949 -0.7191
vn 0.4845 0.7621 0.4295
vn 0.5405 0.6920 0.4785
vn -1.0000 0.0000 0.0000
vn 0.0000 0.0000 -1.0000
vn 1.0000 0.0000 0.0000
vn 0.0000 0.0000 1.0000
usemtl Material.004
s off
f 8/1/1 25/2/1 13/3/1 26/4/1 14/5/1 6/6/1
f 2/7/1 19/8/1 31/9/1 20/10/1 4/11/1
f 47/12/1 34/13/1 48/14/1
f 35/15/1 47/12/1 48/14/1
f 48/14/1 34/13/1 58/16/1
f 36/17/1 38/18/1 49/19/1
f 37/20/1 49/19/1 50/21/1
f 36/17/1 48/14/1 58/16/1
f 43/22/1 39/23/1 51/24/1
f 57/25/1 58/16/1 34/13/1
f 38/18/1 50/21/1 49/19/1
f 45/26/1 58/16/1 57/25/1
f 38/18/1 36/17/1 51/24/1
f 56/27/1 46/28/1 45/26/1
f 44/29/2 46/28/2 56/27/2
f 58/16/1 43/22/1 51/24/1
f 46/28/2 58/16/2 45/26/2
f 54/30/1 40/31/1 52/32/1
f 43/22/1 52/32/1 39/23/1
f 55/33/1 54/30/1 52/32/1
f 42/34/3 54/30/3 55/33/3
f 52/32/1 43/22/1 55/33/1
f 53/35/1 40/31/1 41/36/1
f 41/36/1 40/31/1 54/30/1
f 36/17/1 58/16/1 51/24/1
f 4/11/1 10/37/1 23/38/1 11/39/1 24/40/1 12/41/1 8/1/1
f 12/41/1 25/2/1 8/1/1
f 4/11/1 9/42/1 22/43/1
f 22/43/1 10/37/1 4/11/1
f 2/7/1 30/44/1 18/45/1 33/46/1 21/47/1
f 21/47/1 19/8/1 2/7/1
f 6/6/1 16/48/1 29/49/1 17/50/1 30/44/1 2/7/1
f 14/5/1 27/51/1 15/52/1 28/53/1 6/6/1
f 28/53/1 16/48/1 6/6/1
f 20/10/1 32/54/1 9/42/1 4/11/1
s 1
f 18/55/4 30/56/5 55/57/6 43/58/7
f 30/56/5 17/59/8 42/60/9 55/57/6
f 11/61/10 23/62/11 48/63/12 36/64/13
f 23/62/11 10/65/14 35/66/15 48/63/12
f 19/67/16 21/68/17 46/69/18 44/70/19
f 31/71/20 19/67/16 44/70/19 56/72/21
f 12/73/22 24/74/23 49/75/24 37/76/25
f 24/74/23 11/61/10 36/64/13 49/75/24
f 20/77/26 31/71/20 56/72/21 45/78/27
f 32/79/28 20/77/26 45/78/27 57/80/29
f 13/81/30 25/82/31 50/83/32 38/84/33
f 25/82/31 12/73/22 37/76/25 50/83/32
f 9/85/34 32/79/28 57/80/29 34/86/35
f 33/87/36 18/55/4 43/58/7 58/88/37
f 14/89/38 26/90/39 51/91/40 39/92/41
f 26/90/39 13/81/30 38/84/33 51/91/40
f 15/93/42 27/94/43 52/95/44 40/96/45
f 27/94/43 14/89/38 39/92/41 52/95/44
f 16/97/46 28/98/47 53/99/48 41/100/49
f 28/98/47 15/93/42 40/96/45 53/99/48
f 21/68/17 33/87/36 58/88/37 46/69/18
f 17/59/8 29/101/50 54/102/51 42/60/9
f 29/101/50 16/97/46 41/100/49 54/102/51
f 10/65/14 22/103/52 47/104/53 35/66/15
f 22/103/52 9/85/34 34/86/35 47/104/53
usemtl Material.018
s off
f 1/105/54 2/106/54 4/107/54 3/108/54
f 3/108/55 4/107/55 8/109/55 7/110/55
f 7/110/56 8/109/56 6/111/56 5/112/56
f 5/112/57 6/111/57 2/113/57 1/114/57
