# Blender v3.6.1 OBJ File: 'CloudversModels.blend'
# www.blender.org
mtllib wall_single_01.mtl
o Cube.009
v -11.883216 -0.021540 0.539760
v -11.883216 1.952812 0.539760
v -11.883216 -0.021540 -0.543523
v -11.883216 1.952812 -0.543523
v 11.882455 -0.021540 0.539760
v 11.882455 1.978460 0.539760
v 11.882455 -0.021540 -0.543523
v 11.882455 1.978460 -0.543523
v 10.906840 2.355188 -0.463247
v 10.906840 2.355188 0.539760
v 11.083286 2.726767 -0.399197
v 11.759616 2.726767 -0.399197
v 11.759616 2.726767 0.395434
v 11.083286 2.726767 0.395434
v 10.496409 -0.021540 -0.543523
v 10.496409 1.783076 0.539760
v 10.496409 1.783076 -0.502607
v 10.496409 -0.021540 0.539760
v 10.711142 2.076027 -0.523122
v 10.728428 -0.021540 0.539760
v 10.728428 -0.021540 -0.543523
v 10.711142 2.076027 0.539760
v -6.834949 -0.021540 -0.543523
v -8.389320 1.783076 0.357102
v -6.834949 1.783076 -0.375537
v -6.834949 -0.021540 0.539760
v -3.212524 1.783076 -0.507275
v -3.212524 -0.021540 0.539760
v -3.212524 -0.021540 -0.543523
v -3.212524 1.783076 0.539760
v -3.953062 -0.021540 -0.543523
v -3.575830 1.644423 0.539760
v -3.575830 1.644423 -0.454577
v -3.953062 -0.021540 0.539760
v 3.641943 1.411847 -0.274613
v 3.641943 -0.021540 0.539760
v 3.641942 -0.021540 -0.543523
v 3.641942 1.411847 0.539760
vt 0.375000 0.000000
vt 0.625000 0.000000
vt 0.625000 0.250000
vt 0.375000 0.250000
vt 0.375000 0.500000
vt 0.625000 0.500000
vt 0.625000 0.750000
vt 0.375000 0.750000
vt 0.375000 0.924370
vt 0.625000 0.924370
vt 0.625000 1.000000
vt 0.375000 1.000000
vt 0.625000 0.490301
vt 0.625000 0.490301
vt 0.625000 0.500000
vt 0.799370 0.500000
vt 0.875000 0.500000
vt 0.875000 0.750000
vt 0.799370 0.750000
vt 0.375000 0.487860
vt 0.625000 0.487860
vt 0.634699 0.500000
vt 0.634699 0.750000
vt 0.625000 0.750000
vt 0.634699 0.500000
vt 0.634699 0.750000
vt 0.625000 0.759699
vt 0.625000 0.759699
vt 0.375000 0.413315
vt 0.625000 0.413315
vt 0.625000 0.485420
vt 0.375000 0.485420
vt 0.637140 0.500000
vt 0.639580 0.500000
vt 0.639580 0.750000
vt 0.637140 0.750000
vt 0.375000 0.762140
vt 0.625000 0.762140
vt 0.625000 0.764580
vt 0.375000 0.764580
vt 0.625000 0.325630
vt 0.375000 0.325630
vt 0.791580 0.500000
vt 0.791580 0.750000
vt 0.375000 0.916580
vt 0.625000 0.916580
vt 0.375000 0.836685
vt 0.625000 0.836685
vt 0.625000 0.908790
vt 0.375000 0.908790
vt 0.711685 0.500000
vt 0.783790 0.500000
vt 0.783790 0.750000
vt 0.711685 0.750000
vt 0.375000 0.333420
vt 0.625000 0.333420
vt 0.625000 0.341210
vt 0.375000 0.341210
vn -0.6991 0.0411 0.7138
vn -0.5494 0.5970 0.5847
vn -0.5617 0.6074 -0.5617
vn -0.7009 0.0317 -0.7125
vn 0.7043 0.0136 -0.7098
vn 0.6980 0.1080 -0.7079
vn 0.7071 0.1141 0.6978
vn 0.7071 0.0000 0.7071
vn -0.0104 0.0483 0.9988
vn 0.0337 0.7216 0.6914
vn -0.5837 0.4103 -0.7007
vn -0.4268 0.7280 -0.5366
vn 0.5301 0.6676 -0.5227
vn 0.0269 0.7453 -0.6662
vn -0.0318 0.0173 -0.9993
vn -0.5578 0.4043 -0.7248
vn -0.4220 0.7539 0.5034
vn 0.5435 0.6768 0.4965
vn -0.5276 0.4103 0.7438
vn 0.0002 0.0945 -0.9955
vn 0.0001 0.7368 -0.6761
vn -0.3086 0.5286 -0.7908
vn -0.0376 0.0554 -0.9978
vn -0.2744 0.5069 0.8172
vn -0.5727 0.4106 0.7095
vn 0.0000 0.0000 1.0000
vn 0.0031 0.0597 -0.9982
vn -0.1407 0.6848 -0.7150
vn -0.1138 0.6456 0.7552
vn -0.0131 0.0256 0.9996
vn 0.0000 0.6945 0.7195
vn -0.1157 0.7395 0.6632
vn -0.1123 0.7436 -0.6591
vn -0.0291 0.0608 -0.9977
vn -0.0167 0.0678 -0.9976
usemtl None
s 1
f 1/1/1 2/2/2 4/3/3 3/4/4
f 7/5/5 8/6/6 6/7/7 5/8/8
f 26/9/9 24/10/10 2/11/2 1/12/1
f 8/6/6 9/13/11 11/14/12 12/15/13
f 25/16/14 4/17/3 2/18/2 24/19/10
f 21/20/15 19/21/16 9/13/11 8/6/6 7/5/5
f 12/15/13 11/22/12 14/23/17 13/24/18
f 9/25/11 10/26/19 14/23/17 11/22/12
f 6/7/7 8/6/6 12/15/13 13/24/18
f 10/27/19 6/7/7 13/24/18 14/28/17
f 37/29/20 35/30/21 17/31/22 15/32/23
f 19/33/16 17/34/22 16/35/24 22/36/25
f 20/37/26 22/38/25 16/39/24 18/40/26
f 9/25/11 19/33/16 22/36/25 10/26/19
f 15/32/23 17/31/22 19/21/16 21/20/15
f 3/4/4 4/3/3 25/41/14 23/42/27
f 33/43/28 25/16/14 24/19/10 32/44/29
f 34/45/30 32/46/29 24/10/10 26/9/9
f 36/47/26 38/48/31 30/49/32 28/50/26
f 35/51/21 27/52/33 30/53/32 38/54/31
f 31/55/34 33/56/28 27/57/33 29/58/35
f 23/42/27 25/41/14 33/56/28 31/55/34
f 28/50/26 30/49/32 32/46/29 34/45/30
f 27/52/33 33/43/28 32/44/29 30/53/32
f 10/27/19 22/38/25 20/37/26 5/8/8 6/7/7
f 17/34/22 35/51/21 38/54/31 16/35/24
f 18/40/26 16/39/24 38/48/31 36/47/26
f 29/58/35 27/57/33 35/30/21 37/29/20
